<svg width="20" height="9" viewBox="0 0 20 9" fill="none" xmlns="http://www.w3.org/2000/svg">
<path d="M0.167879 0.152627C0.0612259 0.242595 0.000858291 0.36497 2.28666e-05 0.492914C-0.00137141 0.621104 0.0592765 0.744304 0.167879 0.8332L9.59374 8.85769C9.69927 8.94872 9.84315 9 9.99343 9C10.1437 9 10.2876 8.94872 10.3931 8.85769L19.8208 0.833201C19.9327 0.744062 19.9974 0.620029 19.9999 0.489572C20.0024 0.359009 19.9428 0.233313 19.8343 0.14096C19.726 0.0487342 19.5782 -0.0021828 19.425 7.17885e-05C19.2717 0.00220827 19.1261 0.0572815 19.0213 0.152591L9.99343 7.83676L0.967665 0.152591C0.861849 0.0619084 0.71797 0.0109884 0.567823 0.0109884C0.417812 0.0109884 0.273933 0.0619083 0.168125 0.152591L0.167879 0.152627Z" fill="white"/>
</svg>
