<svg width="50" height="50" viewBox="0 0 50 50" fill="none" xmlns="http://www.w3.org/2000/svg">
<path d="M30.8617 25L48.8013 7.0604C50.3996 5.46211 50.3996 2.79787 48.8013 1.19871C47.203 -0.399571 44.5388 -0.399571 42.9396 1.19871L25 19.1383L7.0604 1.19871C5.46211 -0.399571 2.79787 -0.399571 1.19871 1.19871C-0.399571 2.797 -0.399571 5.46124 1.19871 7.0604L19.1383 25L1.19871 42.9396C-0.399571 44.5379 -0.399571 47.2021 1.19871 48.8013C2.797 50.3996 5.46124 50.3996 7.0604 48.8013L25 30.8617L42.9396 48.8013C44.5379 50.3996 47.2021 50.3996 48.8013 48.8013C50.3996 47.203 50.3996 44.5388 48.8013 42.9396L30.8617 25Z" fill="black"/>
</svg>
