<svg width="20" height="20" viewBox="0 0 20 20" fill="none" xmlns="http://www.w3.org/2000/svg">
<path d="M9.99995 14.0479C9.73704 14.0479 9.5238 14.2613 9.5238 14.524V15.4763C9.5238 15.7392 9.73722 15.9524 9.99995 15.9524C10.2629 15.9524 10.4761 15.739 10.4761 15.4763V14.524C10.4761 14.2613 10.2629 14.0479 9.99995 14.0479Z" fill="black"/>
<path d="M7.81847 6.39623C7.85916 6.35272 7.90201 6.30506 7.94752 6.25407C8.35442 5.79998 8.91215 5.17834 10.1252 5.17834C11.4726 5.17834 12.3067 6.05874 12.3067 6.87469C12.3067 7.69216 11.9088 8.05785 11.0086 8.80738L10.9453 8.8602C9.94304 9.69557 9.524 10.3363 9.524 12.1426C9.524 12.4055 9.73741 12.6188 10.0001 12.6188C10.2631 12.6188 10.4763 12.4054 10.4763 12.1426C10.4763 10.626 10.7558 10.2576 11.5548 9.59162L11.6179 9.53897C12.4983 8.80589 13.2588 8.17277 13.2588 6.87468C13.2588 5.60066 12.0607 4.22583 10.125 4.22583C8.48664 4.22583 7.67448 5.13148 7.23834 5.61792C7.19715 5.66393 7.15862 5.70694 7.12208 5.7463C6.94255 5.93862 6.95301 6.23988 7.14517 6.41943C7.33766 6.5988 7.63909 6.58834 7.81847 6.39618L7.81847 6.39623Z" fill="black"/>
<path d="M10 20C15.4205 20 20 15.4209 20 10C20 4.57908 15.4205 0 10 0C4.57951 0 0 4.57908 0 10C0 15.4209 4.57951 20 10 20ZM10 0.952381C14.9043 0.952381 19.0476 5.09579 19.0476 10C19.0476 14.9042 14.9042 19.0476 10 19.0476C5.09579 19.0476 0.952381 14.9042 0.952381 10C0.952381 5.09579 5.09579 0.952381 10 0.952381Z" fill="black"/>
</svg>
